<svg width="1129" height="578" viewBox="0 0 1129 578" fill="none" xmlns="http://www.w3.org/2000/svg">
<rect width="1129" height="578" fill="#1E1E1E"/>
<rect width="1129" height="578" fill="white"/>
<path d="M36 434C55.2042 437.18 74.9316 437.92 94.3333 436C106.611 434.785 118.358 432.582 125.889 422.111C131.742 413.973 135.684 404.223 136.556 394.222C137.24 386.364 138.027 374.32 130.889 368.889C125.52 364.804 121.122 369.952 118 374.278C110.821 384.225 106.435 397.831 109.333 410.111C115.81 437.556 147.196 436.836 168.556 431.778C205.147 423.111 217.491 384.719 228.222 352.667C237.117 326.1 244.588 299.335 256 273.667C256.877 271.694 272.767 238.125 273.778 236C280.834 221.168 287.204 205.434 298.278 193C320.649 167.882 360.669 154.659 393.778 155C402.294 155.088 377.106 158.537 368.889 160.778C344.578 167.408 327.012 184.653 315.778 206.944C297.717 242.782 302.603 285.613 295.556 324.056C292.108 342.859 286.115 361.084 281.944 379.722C278.621 394.575 278.483 410.645 273.222 425C272.433 427.153 268.966 433.072 269.667 430.889C276.402 409.89 283.649 389.725 288.056 367.944C294.501 336.086 298.176 303.37 289.722 271.5C282.42 243.972 266.943 210.771 240.111 197.333C227.502 191.018 206.557 185.922 193.333 183.556C180.202 181.205 153.316 178.132 139.333 179C110.817 180.771 85.3043 204.429 80.4444 232.778C75.7964 259.891 88.2636 292.827 106.556 312.667C131.736 339.978 175.857 345 210.667 349C230.978 351.334 251.379 351 271.778 351C278.791 351 290.709 353.171 297.278 349.389C302.307 346.493 307.464 345.661 313 344" stroke="url(#paint0_linear_0_1)" stroke-width="15" stroke-linecap="round"/>
<path d="M269 452C289.656 446.216 306.185 431.792 314.278 411.722C316.225 406.893 318.648 399.786 317.667 394.389C316.651 388.8 311.698 394.148 310.278 396.278C306.758 401.557 304.551 413.888 309.111 419.333C312.519 423.402 319.89 422.924 324.556 423.667C330.446 424.604 336.641 426.842 342.667 426.556C346.927 426.353 348.866 423.907 350.611 420.222C356.265 408.286 358.802 394.789 363.278 382.389C376.434 345.942 389.398 310.293 395.167 271.722C399.464 242.992 401.806 213.04 419.333 188.556C431.254 171.904 447.548 161.136 468 160" stroke="url(#paint1_linear_0_1)" stroke-width="15" stroke-linecap="round"/>
<path d="M414 172C437.977 162.371 470.779 157.193 495.222 168.5C505.583 173.293 518.5 180.739 525.444 190.111C536.022 204.388 542.383 224.477 539.889 242.222C537.595 258.54 529.328 271.193 513.722 277.333C498.796 283.206 482.529 283.221 467 286.444C459.4 288.022 465.862 284.868 469.889 282.111C484.49 272.112 499.391 266.711 516.833 272.667C536.515 279.387 546.419 296.759 554.667 314.778C564.423 336.091 570.536 360.521 567.111 384.111C563.721 407.465 544.718 417.427 523.111 421.056C510.694 423.141 497.464 423.306 484.889 423C475.301 422.767 466.436 421.712 458.167 416.444C444.443 407.703 433.035 391.682 426.889 376.778C424.537 371.074 421.662 362.812 425.389 356.944C427.679 353.338 433.735 351.275 437 355.111C448.279 368.361 424.84 389.764 416.889 397.333C411.283 402.67 403.232 408.187 401 416" stroke="url(#paint2_linear_0_1)" stroke-width="15" stroke-linecap="round"/>
<path d="M643 153C627.453 150.739 604.65 149.484 596.667 165.722C585.72 187.988 580.229 210.925 579.5 235.556C579.231 244.652 578.858 253.788 579.222 262.889C579.656 273.741 582.313 283.915 584.111 294.556C587.454 314.333 584.587 335.389 582.778 355.222C581.488 369.358 581.086 381.732 583.944 395.667C586.842 409.792 596.313 416.06 610.778 417.667C631.33 419.95 655.33 416.742 675 411C686.588 407.617 695.755 400.934 705.111 393.556C718.098 383.314 731.591 372.424 741.333 358.889C757.661 336.205 758.026 302.18 758.167 275.222C758.308 248.034 747.069 217.755 732 195.222C721.349 179.296 703.225 160.262 684 155.222C675.975 153.119 667.435 153.177 659.222 152.556C650.936 151.929 641.656 149.616 634.111 154.556C615.856 166.508 614.867 194.704 624 212.333C632.042 227.856 645.053 240.671 659.5 250.278C667.023 255.28 679.352 263.732 685.611 252.778C688.405 247.888 690.389 240.988 690.556 235.333C690.882 224.243 677.501 231.329 673.111 234.444C651.303 249.924 642.723 275.946 630 298" stroke="url(#paint3_linear_0_1)" stroke-width="15" stroke-linecap="round"/>
<path d="M770 208C783.76 220.981 793.887 171.164 795 162.444C795.661 157.264 801.419 135.036 794.444 130.889C789.61 128.014 784.322 168.285 784.222 171.444C783.477 195.119 788.631 218.383 787.556 242.111C786.53 264.752 785 287.069 785 309.778C785 329.994 785.481 350.267 784 370.444C783.345 379.368 778.708 392.389 787.111 398.667C795.126 404.654 804.583 406.552 814.333 407C827.563 407.608 840.511 408.748 853.667 410.333C863.302 411.494 875.67 413.912 884.667 408.667C899.306 400.132 902.184 378.459 904.889 363.667C908.61 343.318 911.889 323.865 917.778 304C923.767 283.796 927.518 263.44 928.333 242.333C929.776 205.007 923.472 165.709 907.333 131.778C904.562 125.951 902.013 126.746 899.667 132.889C895.488 143.832 894.66 156.504 893 168C888.53 198.95 887.634 229.1 890.222 260.222C893.013 293.779 894.496 327.498 896.556 361.111C897.345 373.991 897.616 398.049 912.778 404C915.516 405.075 923.668 407.997 925 404" stroke="url(#paint4_linear_0_1)" stroke-width="15" stroke-linecap="round"/>
<path d="M949 217C946.881 203.651 946.266 189.611 959.111 180.778C975.538 169.482 998.824 171.43 1017.67 171C1039.47 170.502 1058.61 165.044 1076.44 152.222C1088.19 143.779 1096.52 137.961 1097.78 122.889C1097.78 122.859 1098.52 115.746 1098 118C1095.71 127.833 1088.05 136.759 1080.78 143.333C1069.71 153.336 1054.63 156.956 1043.67 166.778C1030.86 178.25 1029.3 196.859 1027.22 212.778C1021.6 255.895 1020.79 299.242 1016.44 342.444C1014.4 362.731 1014.13 382.528 1014 402.889C1013.96 409.069 1012.48 408 1007 408" stroke="url(#paint5_linear_0_1)" stroke-width="15" stroke-linecap="round"/>
<defs>
<linearGradient id="paint0_linear_0_1" x1="154" y1="143" x2="373" y2="349" gradientUnits="userSpaceOnUse">
<stop stop-color="#1A77CD"/>
<stop offset="1" stop-color="#090A0B" stop-opacity="0"/>
</linearGradient>
<linearGradient id="paint1_linear_0_1" x1="368.5" y1="160" x2="368.5" y2="452" gradientUnits="userSpaceOnUse">
<stop stop-color="#221FB2"/>
<stop offset="1" stop-opacity="0"/>
</linearGradient>
<linearGradient id="paint2_linear_0_1" x1="459" y1="326" x2="580" y2="336" gradientUnits="userSpaceOnUse">
<stop stop-color="#1653CA"/>
<stop offset="1" stop-color="#121417" stop-opacity="0"/>
</linearGradient>
<linearGradient id="paint3_linear_0_1" x1="568" y1="80" x2="758" y2="450" gradientUnits="userSpaceOnUse">
<stop stop-color="#150C81"/>
<stop offset="1" stop-color="#23222A" stop-opacity="0"/>
</linearGradient>
<linearGradient id="paint4_linear_0_1" x1="849.267" y1="127.816" x2="860" y2="509" gradientUnits="userSpaceOnUse">
<stop stop-color="#1322A9"/>
<stop offset="1" stop-color="#2D2D30" stop-opacity="0"/>
</linearGradient>
<linearGradient id="paint5_linear_0_1" x1="1023" y1="117.559" x2="1046" y2="506" gradientUnits="userSpaceOnUse">
<stop stop-color="#2B38A8"/>
<stop offset="1" stop-opacity="0"/>
</linearGradient>
</defs>
</svg>
